<svg xmlns="http://www.w3.org/2000/svg" width="36" height="38" viewBox="0 0 36 38" fill="none"><path d="M12.0851 29.0492L12.3383 28.6503L13.7675 26.4046L15.4542 23.7527C15.9563 22.959 15.6967 21.9234 14.8727 21.4387C13.8115 20.8125 13.0293 19.8813 12.598 18.8189C12.1656 17.7555 12.084 16.5597 12.4241 15.4012C12.7621 14.2468 13.4789 13.2702 14.4231 12.5819C15.3662 11.8947 16.539 11.4957 17.79 11.4957C19.0411 11.4957 20.2117 11.8947 21.1549 12.5819C22.0991 13.2702 22.8158 14.2468 23.1538 15.4012C23.4929 16.5597 23.4113 17.7555 22.98 18.8189C22.5486 19.8813 21.7665 20.8125 20.7053 21.4387C19.8813 21.9224 19.6205 22.959 20.1237 23.7527L22.7203 27.8338L23.5014 29.0606C22.6602 29.4243 21.7847 29.7065 20.8898 29.9039C19.8802 30.1261 18.8233 30.1963 17.7922 30.1963C17.6913 30.1984 17.5926 30.1994 17.4918 30.1994C15.6248 30.1994 13.7793 29.8067 12.084 29.0492M6.66661 8.86246C8.41555 6.60536 10.8973 4.87947 13.8372 4.03926C16.7847 3.19698 19.8469 3.33857 22.5905 4.31209C25.3341 5.28459 27.7568 7.08592 29.4317 9.56418C31.1088 12.0445 31.8373 14.9113 31.6506 17.7234C31.4639 20.5345 30.3598 23.2866 28.3695 25.5375C27.7901 26.1927 27.1581 26.7818 26.4821 27.3037L25.6989 26.0738L23.9306 23.2928C24.9585 22.3833 25.7418 21.2672 26.2375 20.0456C26.9403 18.3166 27.0723 16.3727 26.5218 14.4928C25.9693 12.6067 24.8019 11.0141 23.2632 9.89282C21.7246 8.77048 19.8169 8.11939 17.789 8.11939C15.7611 8.11939 13.8523 8.77048 12.3147 9.89282C10.7771 11.0141 9.60868 12.6067 9.05611 14.4928C8.5046 16.3737 8.63765 18.3177 9.33937 20.0456C9.83508 21.2672 10.6183 22.3833 11.6462 23.2928L5.00566 33.7308C4.93377 33.8435 4.83184 33.9241 4.72025 33.9675C4.60652 34.0098 4.4724 34.015 4.33613 33.9799C4.20308 33.9427 4.09579 33.8724 4.02175 33.7804C3.95094 33.6884 3.90909 33.5675 3.90909 33.429V16.8615H3.90265C3.90265 13.9068 4.91553 11.1227 6.66661 8.86349M12.8523 0.808635C9.15804 1.86484 6.04537 4.02479 3.85973 6.84513C1.67625 9.66236 0.412296 13.1493 0.411223 16.8605H0.404785V33.428C0.404785 34.3147 0.705215 35.1415 1.23097 35.8091C1.75565 36.4767 2.50136 36.98 3.39299 37.2219C4.28034 37.4637 5.18592 37.41 5.99494 37.1051C6.80395 36.8002 7.50674 36.2452 7.99172 35.4836L8.42735 34.7994L10.2428 31.947C12.598 33.0405 15.1795 33.6068 17.7933 33.6047C17.8652 33.6047 18.2729 33.5965 18.3544 33.5985C19.4682 33.5634 20.5744 33.4249 21.657 33.1872C25.2214 32.4038 28.5315 30.5374 31.0283 27.7129C33.5262 24.8874 34.9103 21.4439 35.1442 17.9332C35.3781 14.4215 34.4639 10.8374 32.3652 7.72977C30.2633 4.6211 27.2289 2.36194 23.7987 1.14658C21.8888 0.469657 19.8587 0.116211 17.7965 0.116211C16.1527 0.116211 14.4885 0.341507 12.8523 0.808635Z" fill="#BABABA"/><mask id="mask0_1_821" style="mask-type:luminance" maskUnits="userSpaceOnUse" x="0" y="0" width="36" height="38"><path d="M12.0851 29.0492L12.3383 28.6503L13.7675 26.4046L15.4542 23.7527C15.9563 22.959 15.6967 21.9234 14.8727 21.4387C13.8115 20.8125 13.0293 19.8813 12.598 18.8189C12.1656 17.7555 12.084 16.5597 12.4241 15.4012C12.7621 14.2468 13.4789 13.2702 14.4231 12.5819C15.3662 11.8947 16.539 11.4957 17.79 11.4957C19.0411 11.4957 20.2117 11.8947 21.1549 12.5819C22.0991 13.2702 22.8158 14.2468 23.1538 15.4012C23.4929 16.5597 23.4113 17.7555 22.98 18.8189C22.5486 19.8813 21.7665 20.8125 20.7053 21.4387C19.8813 21.9224 19.6205 22.959 20.1237 23.7527L22.7203 27.8338L23.5014 29.0606C22.6602 29.4243 21.7847 29.7065 20.8898 29.9039C19.8802 30.1261 18.8233 30.1963 17.7922 30.1963C17.6913 30.1984 17.5926 30.1994 17.4918 30.1994C15.6248 30.1994 13.7793 29.8067 12.084 29.0492M6.66661 8.86246C8.41555 6.60536 10.8973 4.87947 13.8372 4.03926C16.7847 3.19698 19.8469 3.33857 22.5905 4.31209C25.3341 5.28459 27.7568 7.08592 29.4317 9.56418C31.1088 12.0445 31.8373 14.9113 31.6506 17.7234C31.4639 20.5345 30.3598 23.2866 28.3695 25.5375C27.7901 26.1927 27.1581 26.7818 26.4821 27.3037L25.6989 26.0738L23.9306 23.2928C24.9585 22.3833 25.7418 21.2672 26.2375 20.0456C26.9403 18.3166 27.0723 16.3727 26.5218 14.4928C25.9693 12.6067 24.8019 11.0141 23.2632 9.89282C21.7246 8.77048 19.8169 8.11939 17.789 8.11939C15.7611 8.11939 13.8523 8.77048 12.3147 9.89282C10.7771 11.0141 9.60868 12.6067 9.05611 14.4928C8.5046 16.3737 8.63765 18.3177 9.33937 20.0456C9.83508 21.2672 10.6183 22.3833 11.6462 23.2928L5.00566 33.7308C4.93377 33.8435 4.83184 33.9241 4.72025 33.9675C4.60652 34.0098 4.4724 34.015 4.33613 33.9799C4.20308 33.9427 4.09579 33.8724 4.02175 33.7804C3.95094 33.6884 3.90909 33.5675 3.90909 33.429V16.8615H3.90265C3.90265 13.9068 4.91553 11.1227 6.66661 8.86349M12.8523 0.808635C9.15804 1.86484 6.04537 4.02479 3.85973 6.84513C1.67625 9.66236 0.412296 13.1493 0.411223 16.8605H0.404785V33.428C0.404785 34.3147 0.705215 35.1415 1.23097 35.8091C1.75565 36.4767 2.50136 36.98 3.39299 37.2219C4.28034 37.4637 5.18592 37.41 5.99494 37.1051C6.80395 36.8002 7.50674 36.2452 7.99172 35.4836L8.42735 34.7994L10.2428 31.947C12.598 33.0405 15.1795 33.6068 17.7933 33.6047C17.8652 33.6047 18.2729 33.5965 18.3544 33.5985C19.4682 33.5634 20.5744 33.4249 21.657 33.1872C25.2214 32.4038 28.5315 30.5374 31.0283 27.7129C33.5262 24.8874 34.9103 21.4439 35.1442 17.9332C35.3781 14.4215 34.4639 10.8374 32.3652 7.72977C30.2633 4.6211 27.2289 2.36194 23.7987 1.14658C21.8888 0.469657 19.8587 0.116211 17.7965 0.116211C16.1527 0.116211 14.4885 0.341507 12.8523 0.808635Z" fill="white"/></mask><g mask="url(#mask0_1_821)"><path d="M1.12987 -4.6846L-5.12134 36.6896L34.6519 42.2646L40.9031 0.890442L1.12987 -4.6846Z" fill="#FF6B35"/></g></svg>